<svg width="477" height="94" viewBox="0 0 477 94" fill="none" xmlns="http://www.w3.org/2000/svg">
<g clip-path="url(#clip0_403_9832)" filter="url(#filter0_d_403_9832)">
<mask id="mask0_403_9832" style="mask-type:alpha" maskUnits="userSpaceOnUse" x="11" y="11" width="456" height="73">
<path d="M78.3969 81.8206H57.1514L51.5457 56.2251C51.3665 55.4573 51.1873 54.6126 51.0081 53.7168C50.8034 52.8209 50.6242 51.8995 50.4706 50.9525C50.2914 51.8995 50.1378 52.8209 49.9587 53.7168C49.7795 54.6126 49.6259 55.4573 49.4467 56.2251L43.841 81.8206H22.621L11 29.0684H27.4845L32.2455 53.8192C32.6807 56.3787 33.1414 58.9127 33.5766 61.3954C34.0117 63.8782 34.4725 66.4121 34.9076 68.9717L42.9451 29.094H58.0729L66.1104 68.9717C66.5455 66.4121 67.0063 63.8782 67.4414 61.3954C67.8766 58.9127 68.3373 56.4043 68.7725 53.8192L73.5335 29.0684H90.018L78.3969 81.8462V81.8206Z" fill="url(#paint0_linear_403_9832)"/>
<path d="M119.378 27.8926C123.627 27.8926 127.415 28.5069 130.794 29.7355C134.173 30.964 137.014 32.6277 139.369 34.701C141.699 36.7998 143.516 39.2058 144.77 41.9701C146.024 44.7344 146.664 47.6523 146.664 50.6981V60.1428C146.664 63.4447 146.024 66.4649 144.77 69.2036C143.516 71.9679 141.724 74.3739 139.369 76.4471C137.014 78.5204 134.173 80.1073 130.794 81.2591C127.415 82.4109 123.627 82.974 119.378 82.974C115.129 82.974 111.341 82.4109 107.962 81.2591C104.583 80.1073 101.742 78.5204 99.3867 76.4471C97.0574 74.3739 95.24 71.9679 93.9858 69.2036C92.7315 66.4393 92.1172 63.4191 92.1172 60.1428V50.6981C92.1172 47.6267 92.7571 44.7088 93.9858 41.9701C95.24 39.2058 97.0318 36.7742 99.3867 34.701C101.742 32.6021 104.583 30.964 107.962 29.7355C111.341 28.5069 115.129 27.8926 119.378 27.8926ZM119.378 31.6551C119.224 39.4617 117.484 45.3231 114.182 49.2648C110.88 53.2065 105.658 55.2541 98.4652 55.4077C105.658 55.638 110.905 57.7881 114.182 61.8833C117.458 65.9786 119.199 71.7376 119.378 79.1603C119.48 71.6864 121.195 65.9018 124.472 61.8065C127.748 57.7113 133.021 55.5613 140.291 55.3309C133.047 55.1517 127.774 53.1297 124.472 49.2392C121.17 45.3487 119.48 39.4873 119.378 31.6807V31.6551Z" fill="url(#paint1_linear_403_9832)"/>
<path d="M216.137 81.8227H194.892L189.286 56.2273C189.107 55.4594 188.928 54.6148 188.749 53.7189C188.544 52.8231 188.365 51.9017 188.211 50.9546C188.032 51.9017 187.878 52.8231 187.699 53.7189C187.52 54.6148 187.366 55.4594 187.187 56.2273L181.581 81.8227H160.336L148.715 29.0449H165.199L169.96 53.7957C170.396 56.3553 170.856 58.8892 171.291 61.372C171.727 63.8547 172.187 66.3887 172.622 68.9482L180.66 29.0705H195.788L203.825 68.9482C204.26 66.3887 204.721 63.8547 205.156 61.372C205.591 58.8892 206.052 56.3809 206.487 53.7957L211.248 29.0449H227.733L216.112 81.8227H216.137Z" fill="url(#paint2_linear_403_9832)"/>
<path d="M255.531 29.9947C259.653 28.9965 263.313 28.7918 266.538 29.406C269.738 30.0203 272.4 31.3769 274.524 33.5013C276.316 32.6567 278.159 31.9144 280.079 31.2489C281.999 30.5834 283.791 30.0715 285.48 29.7388C289.32 29.0221 292.826 28.8685 295.975 29.2781C299.123 29.6876 301.811 30.7114 304.038 32.2983C306.265 33.8852 308.005 36.0353 309.234 38.774C310.463 41.5127 311.077 44.7889 311.077 48.6538V81.8511H294.695V50.3175C294.695 46.9645 293.85 44.7121 292.135 43.5091C290.42 42.3061 288.091 42.1014 285.07 42.8692L279.388 44.3794C279.49 45.0449 279.593 45.7359 279.644 46.427C279.695 47.1181 279.721 47.8604 279.721 48.6538V81.8511H263.339V50.3175C263.339 46.9645 262.571 44.6609 261.009 43.3812C259.448 42.1014 257.17 41.8966 254.149 42.7925L248.39 44.4562V81.8255H232.008V29.0733H248.39V31.8376L255.583 29.9947H255.531Z" fill="url(#paint3_linear_403_9832)"/>
<path d="M332.982 61.6018C332.982 63.1119 333.263 64.4429 333.827 65.5691C334.39 66.7209 335.158 67.6679 336.13 68.4102C337.103 69.1524 338.229 69.7411 339.484 70.1251C340.738 70.509 342.069 70.7138 343.451 70.7138C346.472 70.7138 348.826 70.3554 350.516 69.6644C352.205 68.9733 353.076 67.9495 353.076 66.6185V65.0316H369.458V67.4631C369.458 69.6899 368.792 71.7632 367.487 73.6572C366.181 75.5513 364.364 77.1894 362.06 78.5972C359.756 79.9793 356.992 81.0799 353.818 81.8478C350.644 82.6412 347.188 83.0252 343.451 83.0252C339.714 83.0252 336.054 82.4877 332.777 81.3871C329.526 80.3121 326.685 78.7763 324.279 76.7799C321.873 74.809 320.004 72.4543 318.622 69.7667C317.265 67.0536 316.574 64.059 316.574 60.7827V50.7493C316.574 47.2939 317.265 44.1457 318.622 41.3302C319.979 38.5147 321.873 36.1087 324.279 34.1379C326.685 32.167 329.501 30.6313 332.777 29.5307C336.028 28.4557 339.586 27.8926 343.451 27.8926C347.316 27.8926 350.849 28.4301 354.125 29.5307C357.376 30.6057 360.217 32.1414 362.623 34.1379C365.029 36.1087 366.898 38.5147 368.28 41.3302C369.637 44.1457 370.328 47.2939 370.328 50.7493V61.2946H333.033V61.6274L332.982 61.6018ZM344.27 31.8343C344.168 34.1635 343.528 36.1599 342.376 37.7724C341.224 39.3849 339.816 40.6903 338.101 41.7141C336.386 42.7123 334.543 43.4546 332.496 43.9409C330.448 44.4272 328.451 44.6832 326.429 44.7344C328.477 44.7856 330.576 45.0927 332.649 45.6558C334.748 46.2189 336.642 47.038 338.383 48.1642C340.098 49.2904 341.506 50.6725 342.606 52.3362C343.681 53.9999 344.245 56.022 344.245 58.3512C344.245 55.9964 344.757 53.9999 345.755 52.3362C346.753 50.6725 348.084 49.2648 349.722 48.113C351.361 46.9612 353.204 46.1165 355.251 45.5534C357.273 44.9903 359.296 44.6832 361.318 44.632C359.372 44.5808 357.401 44.3249 355.43 43.8385C353.46 43.3522 351.642 42.6356 350.03 41.6117C348.417 40.5879 347.086 39.3081 346.011 37.7212C344.936 36.1343 344.373 34.1635 344.245 31.8343H344.27Z" fill="url(#paint4_linear_403_9832)"/>
<path d="M391.673 61.6018C391.673 63.1119 391.955 64.4429 392.518 65.5691C393.081 66.7209 393.849 67.6679 394.822 68.4102C395.794 69.1524 396.921 69.7411 398.175 70.1251C399.429 70.509 400.76 70.7138 402.142 70.7138C405.163 70.7138 407.518 70.3554 409.207 69.6644C410.897 68.9733 411.767 67.9495 411.767 66.6185V65.0316H428.149V67.4631C428.149 69.6899 427.484 71.7632 426.178 73.6572C424.873 75.5513 423.055 77.1894 420.752 78.5972C418.448 79.9793 415.683 81.0799 412.509 81.8478C409.335 82.6412 405.88 83.0252 402.142 83.0252C398.405 83.0252 394.745 82.4877 391.469 81.3871C388.218 80.3121 385.376 78.7763 382.97 76.7799C380.564 74.809 378.696 72.4543 377.313 69.7667C375.957 67.0536 375.266 64.059 375.266 60.7827V50.7493C375.266 47.2939 375.957 44.1457 377.313 41.3302C378.67 38.5147 380.564 36.1087 382.97 34.1379C385.376 32.167 388.192 30.6313 391.469 29.5307C394.719 28.4557 398.277 27.8926 402.142 27.8926C406.008 27.8926 409.54 28.4301 412.816 29.5307C416.067 30.6057 418.909 32.1414 421.315 34.1379C423.721 36.1087 425.589 38.5147 426.972 41.3302C428.328 44.1457 429.019 47.2939 429.019 50.7493V61.2946H391.725V61.6274L391.673 61.6018ZM402.962 31.8343C402.859 34.1635 402.219 36.1599 401.067 37.7724C399.916 39.3849 398.508 40.6903 396.793 41.7141C395.078 42.7123 393.235 43.4546 391.187 43.9409C389.139 44.4272 387.143 44.6832 385.12 44.7344C387.168 44.7856 389.267 45.0927 391.341 45.6558C393.44 46.2189 395.334 47.038 397.074 48.1642C398.789 49.2904 400.197 50.6725 401.298 52.3362C402.373 53.9999 402.936 56.022 402.936 58.3512C402.936 55.9964 403.448 53.9999 404.446 52.3362C405.445 50.6725 406.776 49.2648 408.414 48.113C410.052 46.9612 411.895 46.1165 413.943 45.5534C415.965 44.9903 417.987 44.6832 420.009 44.632C418.064 44.5808 416.093 44.3249 414.122 43.8385C412.151 43.3522 410.334 42.6356 408.721 41.6117C407.108 40.5879 405.777 39.3081 404.702 37.7212C403.627 36.1343 403.064 34.1635 402.936 31.8343H402.962Z" fill="url(#paint5_linear_403_9832)"/>
<path d="M466.297 81.8226H459.028C455.239 81.8226 452.091 81.2339 449.582 80.0309C447.074 78.8279 445.103 77.2154 443.644 75.1678C442.185 73.1202 441.186 70.7654 440.598 68.0523C440.009 65.3391 439.727 62.498 439.727 59.4778V42.508H432.355V29.1216H439.727V11H456.109V29.1472H466.323V42.5336H456.109V60.6808C456.109 63.4195 456.673 65.3903 457.824 66.6189C458.976 67.8475 460.538 68.4618 462.56 68.4618H466.323V81.8482L466.297 81.8226Z" fill="url(#paint6_linear_403_9832)"/>
</mask>
<g mask="url(#mask0_403_9832)">
<rect x="0.412109" y="-5.94238" width="478.588" height="105.882" fill="url(#paint7_linear_403_9832)"/>
</g>
</g>
<defs>
<filter id="filter0_d_403_9832" x="0.411764" y="0.411764" width="476.47" height="93.1765" filterUnits="userSpaceOnUse" color-interpolation-filters="sRGB">
<feFlood flood-opacity="0" result="BackgroundImageFix"/>
<feColorMatrix in="SourceAlpha" type="matrix" values="0 0 0 0 0 0 0 0 0 0 0 0 0 0 0 0 0 0 127 0" result="hardAlpha"/>
<feOffset/>
<feGaussianBlur stdDeviation="5.29412"/>
<feComposite in2="hardAlpha" operator="out"/>
<feColorMatrix type="matrix" values="0 0 0 0 1 0 0 0 0 1 0 0 0 0 1 0 0 0 1 0"/>
<feBlend mode="normal" in2="BackgroundImageFix" result="effect1_dropShadow_403_9832"/>
<feBlend mode="normal" in="SourceGraphic" in2="effect1_dropShadow_403_9832" result="shape"/>
</filter>
<linearGradient id="paint0_linear_403_9832" x1="75.3614" y1="-30.3066" x2="17.5915" y2="-27.4039" gradientUnits="userSpaceOnUse">
<stop stop-color="#38BBC4"/>
<stop offset="1" stop-color="#0C07FF"/>
</linearGradient>
<linearGradient id="paint1_linear_403_9832" x1="136.547" y1="-34.0739" x2="96.6108" y2="-32.7467" gradientUnits="userSpaceOnUse">
<stop stop-color="#38BBC4"/>
<stop offset="1" stop-color="#0C07FF"/>
</linearGradient>
<linearGradient id="paint2_linear_403_9832" x1="213.076" y1="-30.3301" x2="155.306" y2="-27.4273" gradientUnits="userSpaceOnUse">
<stop stop-color="#38BBC4"/>
<stop offset="1" stop-color="#0C07FF"/>
</linearGradient>
<linearGradient id="paint3_linear_403_9832" x1="296.411" y1="-30.3412" x2="238.604" y2="-27.4357" gradientUnits="userSpaceOnUse">
<stop stop-color="#38BBC4"/>
<stop offset="1" stop-color="#0C07FF"/>
</linearGradient>
<linearGradient id="paint4_linear_403_9832" x1="360.358" y1="-34.1315" x2="321.001" y2="-32.8437" gradientUnits="userSpaceOnUse">
<stop stop-color="#38BBC4"/>
<stop offset="1" stop-color="#0C07FF"/>
</linearGradient>
<linearGradient id="paint5_linear_403_9832" x1="419.049" y1="-34.1315" x2="379.693" y2="-32.8437" gradientUnits="userSpaceOnUse">
<stop stop-color="#38BBC4"/>
<stop offset="1" stop-color="#0C07FF"/>
</linearGradient>
<linearGradient id="paint6_linear_403_9832" x1="460.022" y1="-68.7041" x2="435.133" y2="-68.3037" gradientUnits="userSpaceOnUse">
<stop stop-color="#38BBC4"/>
<stop offset="1" stop-color="#0C07FF"/>
</linearGradient>
<linearGradient id="paint7_linear_403_9832" x1="354.059" y1="-98.0599" x2="-23.6287" y2="-60.3458" gradientUnits="userSpaceOnUse">
<stop stop-color="#38BBC4"/>
<stop offset="1" stop-color="#0C07FF"/>
</linearGradient>
<clipPath id="clip0_403_9832">
<rect width="455.294" height="72" fill="white" transform="translate(11 11)"/>
</clipPath>
</defs>
</svg>
