<svg width="142" height="83" viewBox="0 0 142 83" fill="none" xmlns="http://www.w3.org/2000/svg">
<mask id="mask0_354_11444" style="mask-type:alpha" maskUnits="userSpaceOnUse" x="0" y="0" width="142" height="83">
<g clip-path="url(#clip0_354_11444)">
<path d="M46.1599 32.5485H33.286L29.8892 17.1008C29.7806 16.6374 29.672 16.1276 29.5635 15.587C29.4394 15.0463 29.3308 14.4902 29.2377 13.9186C29.1292 14.4902 29.0361 15.0463 28.9275 15.587C28.8189 16.1276 28.7259 16.6374 28.6173 17.1008L25.2205 32.5485H12.3621L5.32031 0.710938H15.3092L18.1942 15.6488C18.4578 17.1935 18.737 18.7228 19.0007 20.2213C19.2644 21.7197 19.5436 23.249 19.8073 24.7938L24.6776 0.710938H33.8444L38.7147 24.7783C38.9784 23.2335 39.2576 21.7042 39.5213 20.2058C39.785 18.7074 40.0642 17.1935 40.3278 15.6333L43.2283 0.710938H53.2172L46.1754 32.5639L46.1599 32.5485Z" fill="#221F20"/>
<path d="M70.9925 0C73.5672 0 75.8628 0.370743 77.9102 1.11223C79.9576 1.85371 81.6793 2.85781 83.1063 4.10906C84.5178 5.37577 85.619 6.82784 86.379 8.49618C87.1391 10.1645 87.5268 11.9256 87.5268 13.7638V19.464C87.5268 21.4567 87.1391 23.2795 86.379 24.9324C85.619 26.6008 84.5333 28.0529 83.1063 29.3041C81.6793 30.5554 79.9576 31.5131 77.9102 32.2083C75.8628 32.9034 73.5672 33.2433 70.9925 33.2433C68.4177 33.2433 66.1221 32.9034 64.0747 32.2083C62.0273 31.5131 60.3056 30.5554 58.8787 29.3041C57.4672 28.0529 56.3659 26.6008 55.6059 24.9324C54.8459 23.2641 54.4736 21.4413 54.4736 19.464V13.7638C54.4736 11.9101 54.8614 10.1491 55.6059 8.49618C56.3659 6.82784 57.4517 5.36032 58.8787 4.10906C60.3056 2.84236 62.0273 1.85371 64.0747 1.11223C66.1221 0.370743 68.4177 0 70.9925 0ZM70.9925 2.2708C70.8994 6.98232 69.8447 10.5198 67.8438 12.8988C65.8429 15.2777 62.6788 16.5135 58.3203 16.6062C62.6788 16.7452 65.8585 18.0428 67.8438 20.5144C69.8292 22.986 70.8839 26.4618 70.9925 30.9416C71.0545 26.4309 72.0937 22.9397 74.0791 20.4681C76.0645 17.9965 79.2597 16.6989 83.6647 16.5598C79.2752 16.4517 76.08 15.2313 74.0791 12.8833C72.0782 10.5353 71.0545 6.99777 70.9925 2.28625V2.2708Z" fill="#221F20"/>
<path d="M129.623 32.5485H116.749L113.352 17.1008C113.243 16.6374 113.135 16.1276 113.026 15.587C112.902 15.0463 112.794 14.4902 112.701 13.9186C112.592 14.4902 112.499 15.0463 112.39 15.587C112.282 16.1276 112.189 16.6374 112.08 17.1008L108.683 32.5485H95.8095L88.7832 0.710938H98.7721L101.657 15.6488C101.921 17.1935 102.2 18.7228 102.464 20.2213C102.727 21.7197 103.006 23.249 103.27 24.7938L108.14 0.726385H117.307L122.178 24.7938C122.441 23.249 122.721 21.7197 122.984 20.2213C123.248 18.7228 123.527 17.209 123.791 15.6488L126.676 0.710938H136.665L129.623 32.5639V32.5485Z" fill="#221F20"/>
<path d="M14.2853 51.0081C16.7825 50.4056 19.0005 50.282 20.9549 50.6528C22.8937 51.0235 24.5068 51.8423 25.7942 53.1244C26.88 52.6146 27.9967 52.1667 29.16 51.765C30.3233 51.3634 31.4091 51.0544 32.4328 50.8536C34.7594 50.4211 36.8843 50.3284 38.7921 50.5756C40.6999 50.8227 42.3286 51.4406 43.678 52.3984C45.0274 53.3561 46.0821 54.6537 46.8267 56.3066C47.5712 57.9595 47.9434 59.9368 47.9434 62.2694V82.3049H38.0166V63.2735C38.0166 61.2498 37.5048 59.8905 36.4655 59.1644C35.4263 58.4384 34.0149 58.3148 32.1846 58.7782L28.7412 59.6896C28.8033 60.0913 28.8653 60.5084 28.8963 60.9254C28.9274 61.3425 28.9429 61.7905 28.9429 62.2694V82.3049H19.0161V63.2735C19.0161 61.2498 18.5507 59.8596 17.6046 59.0872C16.6584 58.3148 15.278 58.1912 13.4477 58.7319L9.95784 59.736V82.2895H0V50.4365H9.92682V52.1049L14.2853 50.9926V51.0081Z" fill="#221F20"/>
<path d="M61.2206 70.0857C61.2206 70.9971 61.3913 71.8004 61.7325 72.4801C62.0737 73.1752 62.5391 73.7468 63.1285 74.1948C63.7179 74.6428 64.4003 74.9981 65.1603 75.2298C65.9204 75.4615 66.7269 75.5851 67.5645 75.5851C69.3948 75.5851 70.8217 75.3688 71.8454 74.9517C72.8691 74.5346 73.3965 73.9167 73.3965 73.1134V72.1557H83.3233V73.6232C83.3233 74.9672 82.92 76.2184 82.129 77.3615C81.338 78.5047 80.2367 79.4933 78.8407 80.3429C77.4448 81.1771 75.7696 81.8413 73.8463 82.3048C71.923 82.7836 69.8291 83.0154 67.5645 83.0154C65.2999 83.0154 63.0819 82.691 61.0966 82.0267C59.1267 81.3779 57.405 80.4511 55.947 79.2461C54.489 78.0567 53.3567 76.6355 52.5192 75.0135C51.6971 73.3761 51.2783 71.5687 51.2783 69.5914V63.5359C51.2783 61.4505 51.6971 59.5504 52.5192 57.8512C53.3412 56.152 54.489 54.6999 55.947 53.5104C57.405 52.321 59.1112 51.3941 61.0966 50.7299C63.0664 50.0811 65.2224 49.7412 67.5645 49.7412C69.9066 49.7412 72.0471 50.0656 74.0324 50.7299C76.0023 51.3787 77.724 52.3055 79.182 53.5104C80.64 54.6999 81.7723 56.152 82.6098 57.8512C83.4319 59.5504 83.8507 61.4505 83.8507 63.5359V69.9003H61.2517V70.1012L61.2206 70.0857ZM68.0608 52.1201C67.9988 53.5259 67.611 54.7308 66.9131 55.704C66.2151 56.6772 65.362 57.465 64.3228 58.0829C63.2836 58.6854 62.1668 59.1334 60.9259 59.4269C59.6851 59.7204 58.4753 59.8748 57.2499 59.9057C58.4908 59.9366 59.7626 60.122 61.019 60.4619C62.2909 60.8017 63.4387 61.296 64.4934 61.9757C65.5326 62.6554 66.3857 63.4896 67.0526 64.4937C67.7041 65.4978 68.0453 66.7181 68.0453 68.1239C68.0453 66.7027 68.3555 65.4978 68.9605 64.4937C69.5654 63.4896 70.3719 62.64 71.3646 61.9448C72.3573 61.2497 73.4741 60.7399 74.7149 60.4001C75.9402 60.0602 77.1656 59.8748 78.3909 59.8439C77.2121 59.8131 76.0178 59.6586 74.8235 59.3651C73.6292 59.0716 72.5279 58.639 71.5507 58.0211C70.5736 57.4032 69.767 56.6308 69.1156 55.6731C68.4641 54.7153 68.1229 53.5259 68.0453 52.1201H68.0608Z" fill="#221F20"/>
<path d="M96.7866 70.0857C96.7866 70.9971 96.9572 71.8004 97.2984 72.4801C97.6396 73.1752 98.105 73.7468 98.6944 74.1948C99.2838 74.6428 99.9662 74.9981 100.726 75.2298C101.486 75.4615 102.293 75.5851 103.13 75.5851C104.961 75.5851 106.388 75.3688 107.411 74.9517C108.435 74.5346 108.962 73.9167 108.962 73.1134V72.1557H118.889V73.6232C118.889 74.9672 118.486 76.2184 117.695 77.3615C116.904 78.5047 115.803 79.4933 114.407 80.3429C113.011 81.1771 111.336 81.8413 109.412 82.3048C107.489 82.7836 105.395 83.0154 103.13 83.0154C100.866 83.0154 98.6478 82.691 96.6625 82.0267C94.6926 81.3779 92.9709 80.4511 91.5129 79.2461C90.0549 78.0567 88.9227 76.6355 88.0851 75.0135C87.263 73.3761 86.8442 71.5687 86.8442 69.5914V63.5359C86.8442 61.4505 87.263 59.5504 88.0851 57.8512C88.9072 56.152 90.0549 54.6999 91.5129 53.5104C92.9709 52.321 94.6771 51.3941 96.6625 50.7299C98.6323 50.0811 100.788 49.7412 103.13 49.7412C105.473 49.7412 107.613 50.0656 109.598 50.7299C111.568 51.3787 113.29 52.3055 114.748 53.5104C116.206 54.6999 117.338 56.152 118.176 57.8512C118.998 59.5504 119.417 61.4505 119.417 63.5359V69.9003H96.8176V70.1012L96.7866 70.0857ZM103.627 52.1201C103.565 53.5259 103.177 54.7308 102.479 55.704C101.781 56.6772 100.928 57.465 99.8887 58.0829C98.8495 58.6854 97.7327 59.1334 96.4919 59.4269C95.251 59.7204 94.0412 59.8748 92.8158 59.9057C94.0567 59.9366 95.3286 60.122 96.5849 60.4619C97.8568 60.8017 99.0046 61.296 100.059 61.9757C101.099 62.6554 101.952 63.4896 102.619 64.4937C103.27 65.4978 103.611 66.7181 103.611 68.1239C103.611 66.7027 103.921 65.4978 104.526 64.4937C105.131 63.4896 105.938 62.64 106.931 61.9448C107.923 61.2497 109.04 60.7399 110.281 60.4001C111.506 60.0602 112.732 59.8748 113.957 59.8439C112.778 59.8131 111.584 59.6586 110.389 59.3651C109.195 59.0716 108.094 58.639 107.117 58.0211C106.139 57.4032 105.333 56.6308 104.681 55.6731C104.03 54.7153 103.689 53.5259 103.611 52.1201H103.627Z" fill="#221F20"/>
<path d="M142 82.2893H137.595C135.3 82.2893 133.392 81.934 131.872 81.2079C130.352 80.4819 129.157 79.5087 128.273 78.2729C127.389 77.0371 126.784 75.6159 126.428 73.9784C126.071 72.341 125.9 70.6263 125.9 68.8035V58.5617H121.433V50.4826H125.9V39.5303H135.827V50.4826H142.016V58.5617H135.827V69.5141C135.827 71.167 136.168 72.3564 136.866 73.0979C137.564 73.8394 138.51 74.2102 139.736 74.2102H142.016V82.2893H142Z" fill="#221F20"/>
</g>
</mask>
<g mask="url(#mask0_354_11444)">
<rect x="-8" y="-10" width="156" height="98" fill="url(#paint0_linear_354_11444)"/>
</g>
<defs>
<linearGradient id="paint0_linear_354_11444" x1="107.274" y1="-95.2599" x2="-16.9103" y2="-90.8927" gradientUnits="userSpaceOnUse">
<stop stop-color="#38BBC4"/>
<stop offset="1" stop-color="#0C07FF"/>
</linearGradient>
<clipPath id="clip0_354_11444">
<rect width="142" height="83" fill="white"/>
</clipPath>
</defs>
</svg>
